Coordinates
version=1
nRows=7
nColumns=38
inDegrees=yes

Units are S.I. units (second, meters, Newtons, ...)
Angles are in degrees.

endheader
time	pelvis_tilt	pelvis_list	pelvis_rotation	pelvis_tx	pelvis_ty	pelvis_tz	hip_flexion_r	hip_adduction_r	hip_rotation_r	knee_angle_r	ankle_angle_r	subtalar_angle_r	mtp_angle_r	hip_flexion_l	hip_adduction_l	hip_rotation_l	knee_angle_l	ankle_angle_l	subtalar_angle_l	mtp_angle_l	lumbar_extension	lumbar_bending	lumbar_rotation	arm_flex_r	arm_add_r	arm_rot_r	elbow_flex_r	pro_sup_r	wrist_flex_r	wrist_dev_r	arm_flex_l	arm_add_l	arm_rot_l	elbow_flex_l	pro_sup_l	wrist_flex_l	wrist_dev_l
      7.33000000	     -7.65947256	     -2.50823925	     -1.78519166	     -0.22241240	      0.86132219	      2.60715408	     27.06729612	      6.18165646	     -1.48923382	    -19.71642897	      1.26699833	      0.00000000	      0.00000000	      0.29883810	     -2.89332259	     -0.06601695	    -66.32329377	    -30.29260883	      0.00000000	      0.00000000	     -1.04330588	      3.47008683	     -5.46215124	    -16.60753800	    -25.79463767	     17.41025878	    116.27310280	     78.45406638	      0.00000000	      0.00000000	     -1.68363922	    -16.13627515	     22.44066878	    124.18718480	    100.81175366	      0.00000000	      0.00000000
      7.34000000	     -6.72552272	     -3.49016533	     -2.59644198	     -0.22545744	      0.85244825	      2.60979265	     27.35897546	      7.87143018	     -0.58545198	    -24.85949340	      3.19925986	      0.00000000	      0.00000000	      1.61609179	     -4.41306588	     -0.91713226	    -71.73267740	    -28.94168191	      0.00000000	      0.00000000	     -2.72367742	      4.51004091	     -4.12524037	    -13.80948015	    -25.66576336	     18.74074010	    114.84088729	     77.79415546	      0.00000000	      0.00000000	     -2.17229707	    -16.15849976	     22.26739778	    123.39984195	    100.45286094	      0.00000000	      0.00000000
      7.35000000	     -5.72738488	     -4.53951030	     -3.50965580	     -0.22895812	      0.84327952	      2.61270960	     27.78635942	      9.74794246	      0.32945581	    -30.52900409	      6.03989198	      0.00000000	      0.00000000	      2.96353413	     -6.12010692	     -1.76235625	    -77.07883736	    -27.38796145	      0.00000000	      0.00000000	     -4.56176729	      5.55988801	     -2.57622631	    -10.73661495	    -25.48828199	     20.22828993	    113.39058229	     77.19734738	      0.00000000	      0.00000000	     -2.69860522	    -16.10544625	     21.89817818	    122.45623985	    100.09016043	      0.00000000	      0.00000000
      7.36000000	     -4.86182202	     -5.54568712	     -4.50419949	     -0.23250140	      0.83363387	      2.61538038	     28.17097579	     11.65673944	      1.27202708	    -36.01389293	      9.45864597	      0.00000000	      0.00000000	      4.51703871	     -7.83821612	     -2.60157696	    -82.22529666	    -25.69235830	      0.00000000	      0.00000000	     -6.23917497	      6.54317631	     -0.84209835	     -7.48673420	    -25.28991642	     21.81994917	    112.00885239	     76.84640361	      0.00000000	      0.00000000	     -3.33010227	    -15.94801105	     21.39621262	    121.36818647	     99.81544386	      0.00000000	      0.00000000
      7.37000000	     -4.38022478	     -6.41340870	     -5.53516567	     -0.23600734	      0.82435433	      2.61729962	     28.33130721	     13.39155461	      2.17737731	    -40.54518083	     12.98749646	      0.00000000	      0.00000000	      6.52790816	     -9.38491238	     -3.38674931	    -86.96991962	    -23.92795905	      0.00000000	      0.00000000	     -7.46874639	      7.39582234	      0.98934867	     -4.20541007	    -25.08312745	     23.44481082	    110.76901937	     76.87304845	      0.00000000	      0.00000000	     -4.15079715	    -15.70486479	     20.83708894	    120.18234321	     99.69975823	      0.00000000	      0.00000000
      7.38000000	     -4.42371701	     -7.06777774	     -6.51286013	     -0.23931776	      0.81672918	      2.61833440	     28.13714968	     14.72495389	      2.91922834	    -43.60194473	     16.20938204	      0.00000000	      0.00000000	      9.15656159	    -10.64171780	     -3.96511159	    -91.12200253	    -22.15881133	      0.00000000	      0.00000000	     -8.11933471	      8.06051362	      2.77894996	     -1.04363179	    -24.83709499	     25.02032265	    109.73661821	     77.31992304	      0.00000000	      0.00000000	     -5.19695233	    -15.43658860	     20.27458880	    118.97815411	     99.76315230	      0.00000000	      0.00000000
      7.39000000	     -4.88747976	     -7.46621998	     -7.26395975	     -0.24236330	      0.81131468	      2.61882121	     27.50475393	     15.48788685	      3.37328064	    -45.10518224	     18.88609034	      0.00000000	      0.00000000	     12.34347174	    -11.54722538	     -4.13558813	    -94.57640799	    -20.42361397	      0.00000000	      0.00000000	     -8.25178852	      8.48978729	      4.36106792	      1.89544326	    -24.48355413	     26.45136189	    108.98942632	     78.13248764	      0.00000000	      0.00000000	     -6.42482350	    -15.21593754	     19.72371806	    117.86563658	     99.95982452	      0.00000000	      0.00000000
